<svg width="320" height="320" viewBox="0 0 320 320" fill="none" xmlns="http://www.w3.org/2000/svg">
  <rect x="48" y="54" width="224" height="154" rx="26" fill="#10192D" stroke="#3B82F6" stroke-width="2"/>
  <rect x="69" y="78" width="182" height="14" rx="7" fill="#1E293B"/>
  <rect x="69" y="108" width="95" height="10" rx="5" fill="#3B82F6"/>
  <rect x="69" y="127" width="142" height="10" rx="5" fill="#334155"/>
  <rect x="69" y="146" width="126" height="10" rx="5" fill="#334155"/>
  <rect x="69" y="165" width="84" height="10" rx="5" fill="#334155"/>
  <rect x="214" y="108" width="37" height="68" rx="14" fill="#17233B" stroke="#60A5FA"/>
  <path d="M123 235C123 214.565 139.565 198 160 198C180.435 198 197 214.565 197 235V243H123V235Z" fill="#3B82F6" fill-opacity="0.25"/>
  <circle cx="160" cy="181" r="24" fill="#60A5FA" fill-opacity="0.8"/>
  <circle cx="92" cy="239" r="12" fill="#22D3EE" fill-opacity="0.55"/>
  <circle cx="229" cy="246" r="16" fill="#3B82F6" fill-opacity="0.35"/>
  <path d="M82 42L91 23L100 42H82Z" fill="#93C5FD"/>
  <path d="M244 287L253 268L262 287H244Z" fill="#93C5FD"/>
</svg>
